<?xml version="1.0" standalone="no"?>
<!DOCTYPE svg PUBLIC "-//W3C//DTD SVG 20010904//EN"
 "http://www.w3.org/TR/2001/REC-SVG-20010904/DTD/svg10.dtd">
<svg version="1.0" xmlns="http://www.w3.org/2000/svg"
 width="593.000000pt" height="593.000000pt" viewBox="0 0 593.000000 593.000000"
 preserveAspectRatio="xMidYMid meet">

<g transform="translate(0.000000,593.000000) scale(0.100000,-0.100000)"
fill="#000000" stroke="none">
<path d="M3584 4794 c30 -223 38 -362 33 -609 -4 -161 -12 -300 -22 -365 -64
-425 -204 -774 -432 -1078 -40 -53 -155 -180 -256 -282 -251 -253 -345 -383
-445 -610 -163 -370 -200 -782 -117 -1317 13 -85 26 -157 28 -160 7 -7 235
-40 362 -52 387 -36 738 -14 985 65 403 127 769 336 981 562 355 375 511 807
549 1522 22 417 -57 814 -234 1175 -218 442 -547 764 -1041 1021 -115 60 -373
174 -393 174 -2 0 -2 -21 2 -46z"/>
</g>
</svg>
