<?xml version="1.0" standalone="no"?>
<!DOCTYPE svg PUBLIC "-//W3C//DTD SVG 20010904//EN"
 "http://www.w3.org/TR/2001/REC-SVG-20010904/DTD/svg10.dtd">
<svg version="1.0" xmlns="http://www.w3.org/2000/svg"
 width="300.000000pt" height="100.000000pt" viewBox="0 0 300.000000 100.000000"
 preserveAspectRatio="xMidYMid meet">

<g transform="translate(0.000000,100.000000) scale(0.100000,-0.100000)"
fill="#000000" stroke="none">
<path d="M0 500 l0 -500 1500 0 1500 0 0 500 0 500 -1500 0 -1500 0 0 -500z
m798 103 c-4 -22 -22 -20 -26 1 -2 10 3 16 13 16 10 0 15 -7 13 -17z m1242
-108 c0 -104 -2 -125 -15 -125 -8 0 -15 5 -15 10 0 7 -6 7 -19 0 -34 -18 -78
-12 -95 12 -23 33 -21 113 4 138 22 22 79 27 98 8 9 -9 12 -2 12 35 0 35 4 47
15 47 13 0 15 -21 15 -125z m-1628 5 c20 -58 37 -111 37 -117 2 -26 -19 -12
-33 22 -14 33 -18 35 -61 35 -43 0 -47 -2 -61 -35 -8 -19 -21 -35 -28 -35 -11
0 -4 30 27 120 36 104 45 120 62 118 16 -2 28 -26 57 -108z m1020 0 c20 -58
37 -111 37 -117 2 -26 -19 -12 -33 22 -14 33 -18 35 -61 35 -43 0 -47 -2 -61
-35 -8 -19 -21 -35 -28 -35 -11 0 -4 30 27 120 36 104 45 120 62 118 16 -2 28
-26 57 -108z m-762 70 c0 -16 7 -20 30 -20 17 0 30 -4 30 -10 0 -5 -14 -10
-30 -10 l-31 0 3 -67 c3 -67 3 -68 31 -68 15 1 27 -5 27 -12 0 -8 -13 -13 -35
-13 -43 0 -55 23 -55 106 0 41 -4 54 -15 54 -8 0 -15 5 -15 10 0 6 6 10 14 10
7 0 16 9 19 20 3 11 10 20 16 20 6 0 11 -9 11 -20z m-150 -37 c0 -15 1 -15 18
0 21 19 66 23 60 5 -2 -6 -14 -12 -26 -13 -36 -3 -46 -21 -50 -90 -6 -97 -22
-79 -22 25 0 53 4 90 10 90 6 0 10 -7 10 -17z m280 -73 c0 -73 -3 -90 -15 -90
-12 0 -15 17 -15 90 0 73 3 90 15 90 12 0 15 -17 15 -90z m90 78 c0 -9 3 -9
12 0 17 17 58 15 78 -3 15 -14 18 -14 30 0 14 17 57 20 80 5 11 -6 16 -32 18
-90 4 -67 2 -80 -12 -80 -12 0 -16 15 -18 78 -3 70 -5 77 -24 80 -38 5 -54
-23 -54 -94 0 -49 -3 -64 -15 -64 -11 0 -15 18 -17 78 -3 70 -5 77 -24 80 -38
5 -54 -23 -54 -94 0 -50 -3 -64 -15 -64 -12 0 -15 17 -15 90 0 73 3 90 15 90
8 0 15 -5 15 -12z m753 -6 c23 -25 10 -35 -19 -15 -32 21 -72 10 -85 -24 -13
-35 -2 -81 23 -94 22 -12 68 -4 68 11 0 6 7 10 15 10 19 0 19 -9 -2 -32 -23
-25 -81 -24 -110 4 -32 30 -32 102 -1 135 27 29 87 32 111 5z m174 -12 c7 -14
13 -49 13 -77 0 -29 5 -53 10 -53 6 0 10 -4 10 -10 0 -14 -37 -12 -43 3 -4 10
-7 10 -18 0 -18 -18 -74 -16 -88 1 -7 8 -11 27 -9 43 3 24 10 30 53 45 51 17
70 43 39 55 -9 3 -31 1 -47 -5 -37 -14 -49 -6 -22 14 31 23 87 14 102 -16z
m407 11 c9 -10 18 -31 19 -47 2 -29 2 -29 -60 -32 -66 -3 -75 -12 -46 -44 20
-22 56 -23 73 -3 10 12 16 13 24 5 17 -17 -21 -40 -64 -40 -52 0 -75 28 -75
92 0 40 5 53 24 69 30 24 83 25 105 0z m96 7 c0 -9 3 -9 12 0 17 17 75 15 86
-4 8 -14 10 -14 21 0 19 23 78 21 91 -3 5 -11 10 -51 10 -90 0 -56 -3 -71 -15
-71 -11 0 -15 18 -17 78 -3 70 -5 77 -24 80 -38 5 -54 -23 -54 -94 0 -49 -3
-64 -15 -64 -11 0 -15 18 -17 78 -3 70 -5 77 -24 80 -38 5 -54 -23 -54 -94 0
-50 -3 -64 -15 -64 -12 0 -15 17 -15 90 0 73 3 90 15 90 8 0 15 -5 15 -12z
m310 -50 c13 -35 26 -67 30 -71 4 -5 20 23 35 62 15 39 33 71 40 71 10 0 2
-29 -26 -101 -21 -55 -43 -109 -49 -119 -13 -25 -47 -43 -66 -36 -23 9 -16 26
11 26 14 0 29 8 35 21 11 19 3 48 -55 192 -5 11 -2 17 8 17 9 0 23 -24 37 -62z
m-1387 -3 c-4 -15 -86 -12 -91 3 -3 10 8 12 44 10 27 -2 48 -7 47 -13z"/>
<path d="M1925 516 c-23 -17 -27 -85 -6 -110 33 -40 91 -5 91 56 0 56 -44 84
-85 54z"/>
<path d="M332 522 l-21 -62 40 0 c44 0 45 3 20 75 l-18 50 -21 -63z"/>
<path d="M1352 522 l-21 -62 40 0 c44 0 45 3 20 75 l-18 50 -21 -63z"/>
<path d="M1742 449 c-32 -12 -27 -53 7 -57 27 -4 51 20 51 50 0 20 -21 22 -58
7z"/>
<path d="M2136 514 c-26 -26 -18 -34 34 -34 54 0 55 1 40 31 -13 23 -53 25
-74 3z"/>
</g>
</svg>
